# xmcd
#
# Track frame offsets: 
#        150
#        16783
#        32633
#        45795
#        60325
#        72903
#        85448
#        99748
#        117245
#        134560
#        148430
#        162350
#        179600
#        196930
#        212725
#        226830
#
# Disc length: 3285 seconds
#
# Revision: 2
# Processed by: cddbd v1.5.2PL0 Copyright (c) Steve Scherf et al.
# Submitted via: ExactAudioCopy v0.90b4
#
DISCID=df0cd310
DTITLE=邓丽君 -  极品音色（Disc 2)
DYEAR=1997
DGENRE=Pop
TTITLE0=01 漫步人生路
TTITLE1=02 风霜伴我行
TTITLE2=03 忘记他
TTITLE3=04 浪子心声
TTITLE4=05 一水隔天涯
TTITLE5=06 雪中情
TTITLE6=07 东山飘雨西边晴
TTITLE7=08 遇见旧情人
TTITLE8=09 有谁知我此时情
TTITLE9=10 向日葵
TTITLE10=11 槟城艳
TTITLE11=12 遇见你
TTITLE12=13 从今日起
TTITLE13=14 雨中追忆
TTITLE14=15 相思泪
TTITLE15=16 谁在改变
EXTD=
EXTT0=
EXTT1=
EXTT2=
EXTT3=
EXTT4=
EXTT5=
EXTT6=
EXTT7=
EXTT8=
EXTT9=
EXTT10=
EXTT11=
EXTT12=
EXTT13=
EXTT14=
EXTT15=
PLAYORDER=
